<svg xmlns="http://www.w3.org/2000/svg" viewBox="1655.304 3900.304 37.392 37.392">
  <defs>
    <style>
      .cls-1 {
        fill: #fff;
      }
    </style>
  </defs>
  <g id="ic_camera_48px" transform="translate(1639.049 3891.049)">
    <path id="Path_61" data-name="Path 61" class="cls-1" d="M17.835,19.891,26.743,4.458A18.533,18.533,0,0,0,10.88,8.216l6.852,11.862Zm22.7-2.8A18.73,18.73,0,0,0,29.323,5.234L22.481,17.087Zm.486,1.87h-14l.542.935,8.909,15.424A18.626,18.626,0,0,0,41.392,22.7a18.927,18.927,0,0,0-.374-3.739ZM16.218,22.7,8.926,10.076A18.626,18.626,0,0,0,4,22.7a18.927,18.927,0,0,0,.374,3.739h14L16.218,22.7ZM4.86,28.3A18.73,18.73,0,0,0,16.068,40.158L22.911,28.3Zm21.07,0L18.639,40.934a18.553,18.553,0,0,0,15.873-3.758L27.66,25.313,25.93,28.3Z" transform="translate(12.255 5.255)"/>
  </g>
</svg>
