<?xml version="1.0" encoding="utf-8"?>
<!-- Generator: Adobe Illustrator 22.1.0, SVG Export Plug-In . SVG Version: 6.00 Build 0)  -->
<svg version="1.1" id="Layer_1" xmlns="http://www.w3.org/2000/svg" xmlns:xlink="http://www.w3.org/1999/xlink" x="0px" y="0px"
	 viewBox="0 0 393.6 49.2" style="enable-background:new 0 0 393.6 49.2;" xml:space="preserve">
<style type="text/css">
	.st0{fill:#FFFFFF;}
</style>
<g>
	<path class="st0" d="M44.2,48.2V24.5c0-6,0.1-11.9,0.3-17.9h-0.1c-1.8,6-3.7,11.9-5.7,17.8l-8.2,23.9h-9.1l-8.2-23.9
		c-2-5.9-3.9-11.8-5.7-17.8H7.4c0.2,6,0.3,11.9,0.3,17.9v23.7H0V1h12.8l7.6,22.5c2,5.8,3.8,11.9,5.4,17.8H26
		c1.7-5.9,3.5-11.9,5.5-17.8L39.1,1h12.8v47.2H44.2z"/>
	<path class="st0" d="M60.1,48.2V1h8v47.2H60.1z"/>
	<path class="st0" d="M108.1,41.3v6.9H77V1h8v40.3H108.1z"/>
	<path class="st0" d="M122.6,7.9v12.8h22.1v6.8h-22.1v13.8h24.3v6.9h-32.2V1h31.6v6.9H122.6z"/>
	<path class="st0" d="M186.8,15.5h-8c0-6-3.4-9-9.5-9c-5.1,0-8.3,2.5-8.3,6.3c0,4.3,3.2,5.6,10.8,7.5c8.9,2.2,16.3,4.5,16.3,14.5
		c0,8.8-7,14.5-17.6,14.5c-11.4,0-18.4-5.8-18.4-16.6h8.2c0,6.8,3.7,10,10.3,10c5.9,0,9.3-2.7,9.3-7.2c0-4.8-3.4-5.8-10.7-7.6
		c-9-2.3-16.4-4.4-16.4-14.3c0-8,6.6-13.5,16.6-13.5C180.9,0,186.8,5.4,186.8,15.5z"/>
	<path class="st0" d="M230.6,1c15.8,0,24.7,8.5,24.7,23.6s-9,23.6-24.7,23.6h-15.1V1H230.6z M223.4,41.3h7.1
		c11,0,16.6-5.7,16.6-16.7s-5.6-16.7-16.6-16.7h-7.1V41.3z"/>
	<path class="st0" d="M268.4,35.4L264,48.2h-8.4L272.9,1h10.7l17.2,47.2h-8.4L288,35.4H268.4z M284.4,24.8
		c-2.1-6.3-4.2-12.5-6.1-18.8h-0.1c-1.9,6.3-3.8,12.5-6,18.8l-1.3,3.7h14.8L284.4,24.8z"/>
	<path class="st0" d="M309.7,48.2L294.2,1h8.2l6.4,19.7c2.2,6.6,4.1,13.2,5.9,19.8h0.1c1.7-6.6,3.7-13.2,5.8-19.8L327.1,1h8.2
		l-15.4,47.2H309.7z"/>
	<path class="st0" d="M341.3,48.2V1h8v47.2H341.3z"/>
	<path class="st0" d="M392.2,15.5h-8c0-6-3.4-9-9.5-9c-5.1,0-8.3,2.5-8.3,6.3c0,4.3,3.2,5.6,10.8,7.5c8.9,2.2,16.3,4.5,16.3,14.5
		c0,8.8-7,14.5-17.6,14.5c-11.4,0-18.4-5.8-18.4-16.6h8.2c0,6.8,3.7,10,10.3,10c5.9,0,9.3-2.7,9.3-7.2c0-4.8-3.4-5.8-10.7-7.6
		c-9-2.3-16.4-4.4-16.4-14.3c0-8,6.6-13.5,16.6-13.5C386.3,0,392.2,5.4,392.2,15.5z"/>
</g>
</svg>
