<?xml version="1.0" encoding="utf-8"?>
<!-- Generator: Adobe Illustrator 22.1.0, SVG Export Plug-In . SVG Version: 6.00 Build 0)  -->
<svg version="1.1" id="Layer_1" xmlns="http://www.w3.org/2000/svg" xmlns:xlink="http://www.w3.org/1999/xlink" x="0px" y="0px"
	 viewBox="0 0 324.1 324.1" style="enable-background:new 0 0 324.1 324.1;" xml:space="preserve">
<path d="M324.1,162.1c0,89.5-72.6,162.1-162.1,162.1S0,251.6,0,162.1S72.6,0,162.1,0S324.1,72.6,324.1,162.1z M31.2,99.6v124.9h25.7
	v-83.6h0.4l52,83.6h27.5V99.6H111v83.8h-0.4L58.5,99.6H31.2z M158.4,99.6v124.9h25.7v-87.7h0.4l30.6,87.7h21.2l30.6-88.5h0.3v88.5
	H293V99.6h-38.7l-27.6,85.9h-0.3l-29.2-85.9H158.4z"/>
</svg>
